<svg xmlns="http://www.w3.org/2000/svg" xmlns:xlink="http://www.w3.org/1999/xlink" width="500" zoomAndPan="magnify" viewBox="0 0 375 374.999991" height="500" preserveAspectRatio="xMidYMid meet" version="1.0"><defs><clipPath id="ef08a6547c"><path d="M 41.222656 73 L 292 73 L 292 137 L 41.222656 137 Z M 41.222656 73 " clip-rule="nonzero"/></clipPath><clipPath id="d941d9f8df"><path d="M 182 192 L 341.972656 192 L 341.972656 290 L 182 290 Z M 182 192 " clip-rule="nonzero"/></clipPath><clipPath id="3dddb96cb6"><path d="M 42 82 L 341.972656 82 L 341.972656 254 L 42 254 Z M 42 82 " clip-rule="nonzero"/></clipPath><clipPath id="17d448d5ff"><path d="M 41.222656 238 L 292 238 L 292 302 L 41.222656 302 Z M 41.222656 238 " clip-rule="nonzero"/></clipPath></defs><path fill="#ffffff" d="M 375 187.5 C 375 190.570312 374.925781 193.636719 374.773438 196.699219 C 374.625 199.765625 374.398438 202.824219 374.097656 205.878906 C 373.796875 208.933594 373.421875 211.976562 372.96875 215.011719 C 372.519531 218.046875 371.996094 221.070312 371.398438 224.078125 C 370.796875 227.089844 370.125 230.082031 369.378906 233.058594 C 368.636719 236.035156 367.816406 238.992188 366.925781 241.929688 C 366.035156 244.863281 365.074219 247.777344 364.039062 250.667969 C 363.003906 253.554688 361.902344 256.417969 360.726562 259.253906 C 359.554688 262.089844 358.308594 264.890625 356.996094 267.667969 C 355.6875 270.441406 354.308594 273.179688 352.859375 275.886719 C 351.414062 278.59375 349.902344 281.261719 348.324219 283.894531 C 346.746094 286.527344 345.105469 289.117188 343.398438 291.667969 C 341.695312 294.222656 339.929688 296.730469 338.101562 299.195312 C 336.273438 301.660156 334.386719 304.078125 332.4375 306.449219 C 330.492188 308.820312 328.488281 311.144531 326.429688 313.417969 C 324.367188 315.691406 322.253906 317.914062 320.082031 320.082031 C 317.914062 322.253906 315.691406 324.367188 313.417969 326.429688 C 311.144531 328.488281 308.820312 330.492188 306.449219 332.4375 C 304.078125 334.386719 301.65625 336.273438 299.191406 338.101562 C 296.730469 339.929688 294.21875 341.695312 291.667969 343.402344 C 289.117188 345.105469 286.527344 346.746094 283.894531 348.324219 C 281.261719 349.902344 278.59375 351.414062 275.886719 352.859375 C 273.179688 354.308594 270.441406 355.6875 267.667969 356.996094 C 264.890625 358.308594 262.089844 359.554688 259.253906 360.726562 C 256.417969 361.902344 253.554688 363.003906 250.667969 364.039062 C 247.777344 365.074219 244.863281 366.035156 241.929688 366.925781 C 238.992188 367.816406 236.035156 368.636719 233.058594 369.378906 C 230.082031 370.125 227.089844 370.796875 224.078125 371.398438 C 221.070312 371.996094 218.046875 372.519531 215.011719 372.96875 C 211.976562 373.421875 208.933594 373.796875 205.878906 374.097656 C 202.824219 374.398438 199.765625 374.625 196.699219 374.773438 C 193.636719 374.925781 190.570312 375 187.5 375 C 184.429688 375 181.363281 374.925781 178.300781 374.773438 C 175.234375 374.625 172.175781 374.398438 169.121094 374.097656 C 166.066406 373.796875 163.023438 373.421875 159.988281 372.96875 C 156.953125 372.519531 153.929688 371.996094 150.921875 371.398438 C 147.910156 370.796875 144.917969 370.125 141.941406 369.378906 C 138.964844 368.636719 136.007812 367.816406 133.070312 366.925781 C 130.136719 366.035156 127.222656 365.074219 124.332031 364.039062 C 121.445312 363.003906 118.582031 361.902344 115.746094 360.726562 C 112.910156 359.554688 110.105469 358.308594 107.332031 356.996094 C 104.558594 355.6875 101.820312 354.308594 99.113281 352.859375 C 96.40625 351.414062 93.738281 349.902344 91.105469 348.324219 C 88.472656 346.746094 85.882812 345.105469 83.332031 343.402344 C 80.777344 341.695312 78.269531 339.929688 75.804688 338.101562 C 73.339844 336.273438 70.921875 334.386719 68.550781 332.4375 C 66.179688 330.492188 63.855469 328.488281 61.582031 326.429688 C 59.308594 324.367188 57.085938 322.253906 54.917969 320.082031 C 52.746094 317.914062 50.632812 315.691406 48.570312 313.417969 C 46.511719 311.144531 44.507812 308.820312 42.558594 306.449219 C 40.613281 304.078125 38.726562 301.660156 36.898438 299.195312 C 35.070312 296.730469 33.304688 294.222656 31.597656 291.667969 C 29.894531 289.117188 28.253906 286.527344 26.675781 283.894531 C 25.097656 281.261719 23.585938 278.59375 22.140625 275.886719 C 20.691406 273.179688 19.3125 270.441406 18 267.667969 C 16.691406 264.890625 15.445312 262.089844 14.273438 259.253906 C 13.097656 256.417969 11.992188 253.554688 10.960938 250.667969 C 9.925781 247.777344 8.964844 244.863281 8.074219 241.929688 C 7.183594 238.992188 6.363281 236.035156 5.617188 233.058594 C 4.875 230.082031 4.203125 227.089844 3.601562 224.078125 C 3.003906 221.070312 2.480469 218.046875 2.027344 215.011719 C 1.578125 211.976562 1.203125 208.933594 0.902344 205.878906 C 0.601562 202.824219 0.375 199.765625 0.226562 196.699219 C 0.0742188 193.636719 0 190.570312 0 187.5 C 0 184.429688 0.0742188 181.363281 0.226562 178.300781 C 0.375 175.234375 0.601562 172.175781 0.902344 169.121094 C 1.203125 166.066406 1.578125 163.023438 2.03125 159.988281 C 2.480469 156.953125 3.003906 153.929688 3.601562 150.921875 C 4.203125 147.910156 4.875 144.917969 5.621094 141.941406 C 6.363281 138.964844 7.183594 136.007812 8.074219 133.070312 C 8.964844 130.136719 9.925781 127.222656 10.960938 124.332031 C 11.992188 121.445312 13.097656 118.582031 14.273438 115.746094 C 15.445312 112.910156 16.691406 110.105469 18 107.332031 C 19.3125 104.558594 20.691406 101.820312 22.140625 99.113281 C 23.585938 96.40625 25.097656 93.738281 26.675781 91.105469 C 28.253906 88.472656 29.894531 85.882812 31.597656 83.332031 C 33.304688 80.777344 35.070312 78.269531 36.898438 75.804688 C 38.726562 73.339844 40.613281 70.921875 42.558594 68.550781 C 44.507812 66.179688 46.511719 63.855469 48.570312 61.582031 C 50.632812 59.308594 52.746094 57.085938 54.917969 54.917969 C 57.085938 52.746094 59.308594 50.632812 61.582031 48.570312 C 63.855469 46.511719 66.179688 44.507812 68.550781 42.558594 C 70.921875 40.613281 73.339844 38.726562 75.804688 36.898438 C 78.269531 35.070312 80.777344 33.304688 83.332031 31.597656 C 85.882812 29.894531 88.472656 28.253906 91.105469 26.675781 C 93.738281 25.097656 96.40625 23.585938 99.113281 22.140625 C 101.820312 20.691406 104.558594 19.3125 107.332031 18.003906 C 110.105469 16.691406 112.910156 15.445312 115.746094 14.273438 C 118.582031 13.097656 121.445312 11.996094 124.332031 10.960938 C 127.222656 9.925781 130.136719 8.964844 133.070312 8.074219 C 136.007812 7.183594 138.964844 6.363281 141.941406 5.617188 C 144.917969 4.875 147.910156 4.203125 150.921875 3.601562 C 153.929688 3.003906 156.953125 2.480469 159.988281 2.03125 C 163.023438 1.578125 166.066406 1.203125 169.121094 0.902344 C 172.175781 0.601562 175.234375 0.375 178.300781 0.226562 C 181.363281 0.0742188 184.429688 0 187.5 0 C 190.570312 0 193.636719 0.0742188 196.699219 0.226562 C 199.765625 0.375 202.824219 0.601562 205.878906 0.902344 C 208.933594 1.203125 211.976562 1.578125 215.011719 2.03125 C 218.046875 2.480469 221.070312 3.003906 224.078125 3.601562 C 227.089844 4.203125 230.082031 4.875 233.058594 5.617188 C 236.035156 6.363281 238.992188 7.183594 241.929688 8.074219 C 244.863281 8.964844 247.777344 9.925781 250.667969 10.960938 C 253.554688 11.996094 256.417969 13.097656 259.253906 14.273438 C 262.089844 15.445312 264.890625 16.691406 267.667969 18.003906 C 270.441406 19.3125 273.179688 20.691406 275.886719 22.140625 C 278.59375 23.585938 281.261719 25.097656 283.894531 26.675781 C 286.527344 28.253906 289.117188 29.894531 291.667969 31.597656 C 294.21875 33.304688 296.730469 35.070312 299.191406 36.898438 C 301.65625 38.726562 304.078125 40.613281 306.449219 42.558594 C 308.820312 44.507812 311.144531 46.511719 313.417969 48.570312 C 315.691406 50.632812 317.914062 52.746094 320.082031 54.917969 C 322.253906 57.085938 324.367188 59.308594 326.429688 61.582031 C 328.488281 63.855469 330.492188 66.179688 332.4375 68.550781 C 334.386719 70.921875 336.273438 73.339844 338.101562 75.804688 C 339.929688 78.269531 341.695312 80.777344 343.402344 83.332031 C 345.105469 85.882812 346.746094 88.472656 348.324219 91.105469 C 349.902344 93.738281 351.414062 96.40625 352.859375 99.113281 C 354.308594 101.820312 355.6875 104.558594 356.996094 107.332031 C 358.308594 110.105469 359.554688 112.910156 360.726562 115.746094 C 361.902344 118.582031 363.003906 121.445312 364.039062 124.332031 C 365.074219 127.222656 366.035156 130.136719 366.925781 133.070312 C 367.816406 136.007812 368.636719 138.964844 369.378906 141.941406 C 370.125 144.917969 370.796875 147.910156 371.398438 150.921875 C 371.996094 153.929688 372.519531 156.953125 372.96875 159.988281 C 373.421875 163.023438 373.796875 166.066406 374.097656 169.121094 C 374.398438 172.175781 374.625 175.234375 374.773438 178.300781 C 374.925781 181.363281 375 184.429688 375 187.5 Z M 375 187.5 " fill-opacity="1" fill-rule="nonzero"/><g clip-path="url(#ef08a6547c)"><path fill="#070b0a" d="M 236.796875 73.179688 C 241.375 73.179688 260.078125 72.804688 262.703125 73.269531 C 264.988281 73.671875 267.050781 74.601562 269.222656 75.324219 C 277.007812 77.921875 283.96875 84.011719 287.839844 91.203125 C 289.40625 94.113281 290.996094 96.878906 291.824219 100.535156 L 263.058594 115.554688 C 263.394531 114.214844 263.152344 113.1875 262.972656 112.15625 C 262.074219 107.066406 257.148438 104.59375 252.464844 104.074219 C 249.585938 103.753906 207.332031 103.660156 204.585938 103.96875 C 199.539062 104.527344 176.058594 104.109375 169.175781 104.109375 C 151.003906 104.109375 132.859375 104.289062 114.6875 104.289062 C 105.992188 104.289062 97.296875 104.289062 88.605469 104.289062 C 86.402344 104.289062 84.210938 103.992188 81.992188 104.109375 C 80.957031 104.164062 79.917969 104.480469 78.9375 104.808594 C 76.335938 105.675781 74.152344 108.449219 73.3125 110.976562 C 72.8125 112.46875 72.847656 114.082031 72.578125 115.605469 C 72.523438 115.921875 72.382812 116.207031 72.132812 116.410156 C 70.765625 117.53125 43.410156 135.710938 41.886719 136.472656 C 41.886719 132.085938 41.347656 108.566406 41.652344 106.828125 C 43.207031 98.03125 46.304688 92.078125 51.890625 85.246094 C 52.621094 84.355469 53.398438 83.394531 54.300781 82.65625 C 58.484375 79.230469 63.558594 75.488281 69.042969 74.519531 C 71.121094 74.152344 105.058594 74.25 110.042969 74.25 C 113.566406 74.25 117.074219 74.257812 120.582031 74.074219 C 130.734375 73.539062 144.734375 74.609375 154.886719 74.074219 C 161.597656 73.71875 168.359375 74.246094 175.074219 73.894531 C 181.074219 73.578125 187.117188 74.03125 193.117188 73.714844 C 198.761719 73.417969 204.445312 73.832031 210.089844 73.535156 C 218.808594 73.078125 227.613281 73.359375 236.796875 73.179688 Z M 236.796875 73.179688 " fill-opacity="0.996" fill-rule="nonzero"/></g><g clip-path="url(#d941d9f8df)"><path fill="#070b0a" d="M 216.074219 192.972656 C 217.679688 192.972656 224.449219 196.664062 225.953125 197.476562 C 233.363281 201.46875 241.40625 204.742188 248.820312 208.742188 C 251.292969 210.070312 253.925781 211.09375 256.394531 212.421875 C 268.597656 219 281.464844 224.335938 293.664062 230.910156 C 298.757812 233.65625 304.183594 235.78125 309.277344 238.527344 C 312.121094 240.058594 339.800781 253.835938 341.132812 254.117188 L 341.132812 289.699219 L 183.023438 212.28125 C 182.570312 211.664062 182.5 210.957031 182.664062 210.136719 Z M 216.074219 192.972656 " fill-opacity="0.996" fill-rule="nonzero"/></g><path fill="#070b0a" d="M 72.257812 121.453125 C 74.0625 121.453125 89.398438 129.324219 91.785156 130.609375 C 96.175781 132.972656 100.863281 134.785156 105.253906 137.152344 C 116.167969 143.03125 127.679688 147.792969 138.589844 153.671875 C 141.289062 155.125 150.535156 159.742188 153.1875 160.878906 C 154.132812 161.28125 157.988281 162.785156 158.066406 163.792969 C 158.140625 164.78125 151.210938 167.800781 150.027344 168.441406 C 147.722656 169.683594 124.046875 181.640625 123.53125 181.761719 C 122.519531 181.996094 108.9375 175.003906 107.042969 173.984375 C 102.535156 171.554688 97.722656 169.691406 93.214844 167.261719 C 82.609375 161.546875 71.390625 156.972656 60.789062 151.257812 C 56.285156 148.832031 51.515625 146.90625 47.011719 144.480469 C 46.25 144.070312 42.851562 142.742188 42.851562 141.925781 C 42.851562 140.882812 48.578125 137.429688 49.691406 136.6875 C 53.582031 134.089844 69.234375 123.144531 72.257812 121.453125 Z M 72.257812 121.453125 " fill-opacity="0.996" fill-rule="nonzero"/><g clip-path="url(#3dddb96cb6)"><path fill="#070b0a" d="M 341.3125 82.476562 L 341.667969 82.476562 C 341.667969 91.921875 341.667969 101.011719 341.667969 110.101562 C 341.667969 111.476562 341.941406 119.21875 341.417969 119.863281 C 340.730469 120.703125 324.207031 128.476562 321.710938 129.820312 C 317.386719 132.152344 312.890625 134.175781 308.5625 136.507812 C 307.691406 136.976562 306.6875 137.214844 305.8125 137.6875 C 294.5625 143.75 282.761719 148.789062 271.511719 154.851562 C 264.363281 158.703125 256.863281 161.90625 249.714844 165.757812 C 243.972656 168.851562 237.949219 171.425781 232.207031 174.519531 C 217.703125 182.335938 202.472656 188.769531 187.972656 196.582031 C 184.457031 198.476562 180.769531 200.050781 177.253906 201.945312 C 172.683594 204.410156 167.886719 206.457031 163.316406 208.917969 C 154.332031 213.761719 144.898438 217.773438 135.910156 222.613281 C 126.3125 227.789062 116.285156 232.171875 106.683594 237.347656 C 105.808594 237.820312 104.804688 238.058594 103.933594 238.527344 C 100.535156 240.359375 96.96875 241.882812 93.570312 243.710938 C 90.285156 245.484375 75.449219 253.222656 72.8125 253.6875 C 71.734375 253.878906 65.769531 249.21875 64.609375 248.273438 C 62.441406 246.496094 45.425781 234.101562 42.957031 232.664062 C 42.65625 231.460938 42.507812 230.738281 43.171875 229.925781 C 44.394531 228.433594 55.941406 223.238281 58.625 221.792969 C 63.046875 219.410156 67.710938 217.488281 72.132812 215.105469 C 72.617188 214.84375 73.179688 214.761719 73.667969 214.496094 C 84.230469 208.804688 95.34375 204.164062 105.898438 198.476562 C 108.015625 197.335938 110.28125 196.472656 112.402344 195.332031 C 114.3125 194.300781 116.3125 193.429688 118.226562 192.398438 C 118.714844 192.136719 119.292969 192.070312 119.78125 191.808594 C 125.949219 188.484375 132.421875 185.710938 138.589844 182.386719 C 140.011719 181.621094 141.574219 181.109375 142.988281 180.347656 C 149.394531 176.894531 156.125 174.039062 162.53125 170.585938 C 163.605469 170.007812 164.8125 169.671875 165.871094 169.101562 C 172.394531 165.585938 179.234375 162.65625 185.757812 159.144531 C 186.832031 158.5625 188.035156 158.230469 189.097656 157.660156 C 195.503906 154.207031 202.21875 151.332031 208.625 147.878906 C 209.738281 147.277344 210.988281 146.9375 212.089844 146.339844 C 222.964844 140.480469 234.382812 135.675781 245.25 129.820312 C 249.046875 127.773438 253.066406 126.144531 256.859375 124.097656 C 257.347656 123.835938 257.929688 123.773438 258.414062 123.507812 C 261.609375 121.789062 264.921875 120.277344 268.117188 118.558594 C 272.03125 116.449219 276.171875 114.765625 280.085938 112.65625 C 280.613281 112.371094 281.238281 112.296875 281.765625 112.011719 C 292.171875 106.40625 303.097656 101.808594 313.496094 96.207031 C 315.765625 94.984375 318.1875 94.035156 320.460938 92.808594 C 323.441406 91.203125 339.855469 83.570312 341.3125 82.476562 Z M 341.3125 82.476562 " fill-opacity="0.996" fill-rule="nonzero"/></g><g clip-path="url(#17d448d5ff)"><path fill="#070b0a" d="M 41.886719 238.5625 C 50.046875 244.007812 58.027344 249.273438 65.988281 254.582031 C 68 255.925781 70.257812 257.089844 72.132812 258.625 C 73.324219 259.601562 72.035156 267.984375 79.296875 270.40625 C 80.011719 270.644531 80.882812 270.886719 81.636719 270.925781 C 84.265625 271.0625 86.878906 270.746094 89.496094 270.746094 C 99.085938 270.746094 108.671875 270.746094 118.261719 270.746094 C 121.074219 270.746094 123.855469 270.777344 126.65625 270.925781 C 129.4375 271.070312 132.269531 270.925781 135.054688 270.925781 C 141.425781 270.925781 147.796875 270.925781 154.171875 270.925781 C 170.914062 270.925781 187.632812 271.105469 204.371094 271.105469 C 215.449219 271.105469 226.527344 271.105469 237.601562 271.105469 C 242.460938 271.105469 247.398438 271.359375 252.25 271.105469 C 258.53125 270.773438 263.238281 266.460938 263.238281 259.660156 C 264.804688 260.050781 282.203125 269.582031 284.855469 271.015625 C 285.824219 271.535156 291.355469 274.117188 291.628906 274.714844 C 292.058594 275.660156 290.003906 279.988281 289.464844 280.992188 C 286.132812 287.179688 281.761719 293.351562 275.40625 296.777344 C 271.433594 298.921875 267.199219 300.972656 262.703125 301.765625 C 259.476562 302.335938 228.804688 301.675781 222.773438 301.675781 C 214.367188 301.675781 205.964844 301.761719 197.582031 301.320312 C 187.421875 300.785156 174.160156 301.855469 163.996094 301.320312 C 155.335938 300.863281 146.59375 301.140625 137.914062 301.140625 C 128.613281 301.140625 119.339844 300.960938 110.042969 300.960938 C 106.214844 300.960938 69.835938 300.667969 69.183594 300.550781 C 64.730469 299.765625 59.96875 297.136719 56.5 294.292969 C 48.554688 287.789062 43.449219 278.457031 41.671875 268.367188 C 41.230469 265.855469 41.886719 243.828125 41.886719 238.5625 Z M 41.886719 238.5625 " fill-opacity="0.996" fill-rule="nonzero"/></g></svg>